<?xml version="1.0" standalone="no"?>
<!DOCTYPE svg PUBLIC "-//W3C//DTD SVG 20010904//EN"
 "http://www.w3.org/TR/2001/REC-SVG-20010904/DTD/svg10.dtd">
<svg version="1.0" xmlns="http://www.w3.org/2000/svg"
 width="500.000000pt" height="500.000000pt" viewBox="0 0 500.000000 500.000000"
 preserveAspectRatio="xMidYMid meet">

<g transform="translate(0.000000,500.000000) scale(0.100000,-0.100000)"
fill="#000000" stroke="none">
<path d="M2290 4301 c-325 -69 -579 -300 -681 -621 -22 -67 -24 -93 -24 -250
0 -156 3 -183 24 -250 45 -145 120 -277 216 -378 15 -15 35 -43 45 -63 19 -35
66 -76 77 -65 3 3 -2 8 -11 12 -23 9 -46 56 -46 96 0 38 36 83 78 100 47 18
152 11 247 -18 162 -48 189 -54 240 -54 109 0 172 35 220 121 29 52 30 58 29
179 0 111 -3 133 -28 200 -16 41 -32 79 -37 85 -5 5 0 -17 12 -50 19 -51 22
-82 23 -205 1 -179 -12 -216 -98 -274 -63 -42 -132 -37 -356 30 -175 51 -288
33 -342 -55 l-22 -34 -39 44 c-86 97 -153 218 -189 345 -18 66 -22 104 -22
229 0 128 3 162 23 230 91 312 330 543 638 616 105 25 289 27 387 5 86 -20
183 -59 259 -103 l59 -35 -20 -21 c-11 -12 -23 -32 -27 -44 -9 -30 -16 -29
-40 8 -22 34 -66 63 -109 73 l-29 7 5 -57 c4 -52 9 -61 43 -91 34 -29 36 -33
19 -40 -46 -17 -116 -67 -129 -94 -23 -43 -19 -49 33 -49 42 1 74 9 135 35 13
5 17 2 17 -14 0 -51 72 -161 106 -161 13 0 24 54 24 127 l0 52 34 -6 c47 -7
126 5 126 21 0 18 -74 87 -114 105 l-35 16 26 30 26 29 45 -49 c81 -90 146
-200 186 -316 31 -87 44 -82 -191 -76 -184 4 -216 8 -279 29 -97 32 -176 82
-243 154 -58 62 -90 131 -92 198 0 31 0 31 -11 6 -18 -45 -28 -172 -18 -234
27 -170 175 -316 430 -423 312 -131 400 -175 400 -200 0 -24 -33 -98 -79 -177
-45 -77 -176 -226 -199 -226 -14 0 -14 -3 -2 40 29 97 4 255 -60 385 -56 114
-90 151 -41 45 135 -291 102 -524 -87 -617 -53 -26 -65 -28 -172 -27 -95 1
-129 6 -195 27 -94 31 -208 85 -280 132 -118 79 -189 94 -225 48 -11 -15 -18
-34 -15 -42 13 -34 51 -81 70 -87 11 -4 47 -19 80 -34 165 -75 265 -94 465
-85 182 8 236 17 295 47 51 27 143 106 270 233 76 77 99 108 145 198 30 59 58
107 63 107 7 0 11 -31 7 -65 -1 -11 -12 -33 -23 -50 -14 -19 -16 -25 -5 -17
28 22 51 82 44 115 -16 78 -78 121 -344 236 -90 39 -190 86 -223 103 -179 96
-290 241 -304 396 l-5 57 13 -45 c47 -156 158 -272 313 -327 67 -23 205 -56
309 -73 224 -37 315 -88 365 -205 38 -87 6 -199 -73 -256 -22 -16 -36 -29 -30
-29 17 0 88 55 105 82 71 108 42 259 -64 337 -60 45 -120 64 -318 105 -96 19
-203 44 -236 55 -172 55 -290 154 -344 290 -26 66 -20 78 9 19 49 -100 160
-183 306 -231 49 -16 104 -20 305 -26 268 -9 308 -16 368 -71 18 -16 32 -25
32 -20 0 17 -76 72 -128 94 l-53 21 -33 97 c-39 114 -98 216 -181 313 -56 65
-60 73 -57 115 4 67 -8 79 -50 46 -40 -30 -46 -31 -67 -12 -23 20 -147 82
-201 100 -144 48 -321 58 -470 27z m768 -147 c2 -49 -19 -94 -63 -137 -37 -36
-38 -41 -2 -37 31 3 83 -20 108 -47 18 -19 21 -27 10 -31 -11 -4 -11 -6 0 -13
9 -6 -4 -9 -36 -9 -30 0 -60 6 -73 16 -30 21 -36 14 -23 -31 5 -20 7 -59 4
-86 -5 -43 -9 -50 -26 -47 -31 5 -67 81 -67 141 l0 51 -27 -26 c-45 -42 -173
-72 -173 -40 0 26 75 83 133 101 34 11 54 20 45 20 -29 1 -85 64 -98 110 -6
24 -9 45 -7 47 2 3 21 -12 42 -33 38 -38 39 -27 2 15 -11 12 -15 22 -9 22 14
0 82 -66 103 -99 l15 -25 23 47 c13 26 43 65 68 87 25 22 47 40 48 40 1 0 2
-16 3 -36z m-993 -1388 c19 -8 79 -42 132 -75 90 -55 234 -121 264 -121 7 0 9
-3 5 -7 -17 -18 -208 13 -300 48 -98 38 -216 108 -216 129 0 17 32 40 56 40
14 0 40 -6 59 -14z"/>
<path d="M3031 4129 c-7 -12 -10 -23 -8 -26 3 -3 11 5 17 17 6 12 10 23 8 25
-2 2 -10 -5 -17 -16z"/>
<path d="M2945 4020 c-3 -5 -1 -10 4 -10 6 0 11 5 11 10 0 6 -2 10 -4 10 -3 0
-8 -4 -11 -10z"/>
<path d="M2916 3984 c-9 -23 -7 -34 4 -34 6 0 10 7 10 15 0 8 5 15 10 15 6 0
10 5 10 10 0 16 -27 11 -34 -6z"/>
<path d="M2940 3955 c0 -8 7 -15 15 -15 8 0 15 7 15 15 0 8 -7 15 -15 15 -8 0
-15 -7 -15 -15z"/>
<path d="M2892 3940 c13 -21 38 -27 38 -10 0 6 -7 10 -15 10 -8 0 -15 5 -15
10 0 6 -5 10 -10 10 -6 0 -5 -8 2 -20z"/>
<path d="M2860 3929 c0 -5 5 -7 10 -4 6 3 10 8 10 11 0 2 -4 4 -10 4 -5 0 -10
-5 -10 -11z"/>
<path d="M2744 3884 c-18 -14 -18 -15 4 -4 12 6 22 13 22 15 0 8 -5 6 -26 -11z"/>
<path d="M2930 3818 c0 -20 19 -72 25 -67 2 3 -2 23 -10 44 -8 22 -14 32 -15
23z"/>
<path d="M2502 4162 c-111 -59 -209 -169 -242 -273 -18 -56 -16 -55 -40 -34
-24 22 -27 5 -4 -30 12 -18 13 -28 5 -44 -14 -25 -85 -74 -131 -90 -85 -29
-101 -66 -54 -128 14 -19 24 -36 23 -37 -2 -2 -15 -9 -27 -16 -20 -10 -23 -18
-20 -48 3 -22 -1 -46 -9 -59 -12 -19 -12 -26 1 -52 21 -39 20 -53 -4 -84 -26
-33 -25 -77 1 -111 30 -38 50 -46 147 -57 130 -15 179 -32 242 -83 l25 -21
-25 28 c-39 45 -108 74 -216 93 -106 18 -164 48 -164 85 0 11 12 38 26 61 25
40 26 42 10 75 -22 47 -20 53 14 53 37 0 38 15 5 46 -14 13 -25 28 -25 34 0 6
11 15 25 20 33 13 33 51 -1 96 -27 35 -27 64 0 64 23 0 117 48 148 75 37 32
68 84 68 114 0 13 16 57 36 98 42 88 134 187 209 226 28 14 46 26 40 27 -5 0
-34 -13 -63 -28z"/>
<path d="M2840 3336 c0 -2 8 -10 18 -17 15 -13 16 -12 3 4 -13 16 -21 21 -21
13z"/>
<path d="M2775 3280 c32 -89 55 -224 55 -316 0 -81 -3 -98 -28 -145 -20 -39
-39 -59 -72 -77 -41 -22 -54 -23 -140 -19 -52 2 -106 9 -120 15 -14 6 -103 36
-198 66 -180 59 -261 70 -317 44 -26 -12 -55 -55 -55 -80 1 -7 7 1 15 19 7 17
24 37 36 44 35 18 144 5 245 -31 237 -84 299 -101 390 -107 83 -5 96 -4 146
19 98 45 132 119 126 271 -4 84 -11 121 -42 212 -20 61 -42 114 -47 120 -5 5
-3 -10 6 -35z"/>
<path d="M1241 2678 c-11 -29 -64 -249 -94 -387 l-22 -103 -90 -30 c-49 -16
-134 -51 -188 -78 -54 -28 -100 -50 -103 -50 -7 0 21 263 45 415 5 33 15 95
21 137 12 76 8 120 -9 102 -18 -18 -72 -360 -91 -564 -7 -76 -18 -138 -28
-159 -12 -23 -13 -35 -6 -38 8 -3 10 -54 6 -178 -4 -158 -3 -175 12 -175 11 0
16 9 16 28 0 100 22 307 33 314 6 4 53 8 104 8 68 0 106 -5 146 -20 84 -32 91
-43 82 -144 -7 -86 1 -110 26 -79 9 10 15 47 16 102 2 91 15 211 35 323 l12
67 51 12 c27 6 85 14 128 16 l77 6 -16 -38 c-19 -47 -15 -99 8 -103 12 -2 27
11 45 42 30 49 43 57 43 27 0 -21 44 -61 68 -61 8 0 30 9 48 21 32 20 34 20
40 2 31 -95 80 -104 155 -27 40 41 51 43 49 7 -5 -67 14 -75 24 -10 11 70 28
87 86 87 28 0 50 5 50 10 0 14 -104 12 -118 -2 -9 -9 -12 -1 -12 36 0 60 -22
59 -31 -2 -5 -41 -24 -69 -84 -124 -63 -58 -91 -26 -82 99 3 46 2 83 -2 83
-15 0 -28 -24 -35 -62 -6 -33 -62 -98 -84 -98 -24 0 -45 31 -49 73 -4 29 -11
47 -19 47 -7 0 -27 -25 -44 -55 -17 -30 -34 -55 -37 -55 -12 0 12 68 36 102
27 39 48 47 69 26 6 -6 15 -8 19 -5 4 4 -3 18 -15 30 l-22 22 -43 -23 c-23
-12 -58 -22 -77 -22 -19 0 -75 -7 -123 -16 -48 -9 -91 -13 -94 -10 -7 7 34
216 72 369 14 54 25 104 25 112 0 23 -19 18 -29 -7z m-121 -530 c0 -19 -33
-262 -36 -267 -2 -2 -16 6 -31 17 -45 32 -108 44 -217 41 l-101 -2 3 24 c3 31
36 58 128 104 62 32 222 93 247 95 4 0 7 -6 7 -12z"/>
<path d="M3627 2623 c-4 -6 -1 -67 7 -135 16 -145 7 -304 -25 -461 -44 -218
-105 -387 -139 -387 -15 0 -40 81 -55 178 -8 53 -21 194 -30 312 -22 306 -36
377 -71 354 -61 -37 -169 -710 -140 -867 14 -77 23 -31 29 151 6 190 23 314
71 523 28 124 41 161 50 139 3 -8 12 -116 21 -240 27 -398 66 -570 129 -570
52 0 105 143 162 435 23 116 27 166 27 290 -1 145 -21 302 -36 278z"/>
<path d="M3960 2531 c-15 -30 -37 -165 -45 -286 l-7 -100 -53 -53 c-34 -34
-60 -52 -72 -50 -32 6 -44 47 -37 131 4 46 2 77 -3 77 -18 0 -33 -51 -33 -115
0 -57 3 -69 29 -97 26 -30 30 -31 58 -19 17 7 45 28 64 47 18 19 37 34 41 34
4 0 8 -35 8 -77 0 -88 11 -119 29 -85 6 11 11 27 11 34 0 18 49 122 55 116 3
-3 14 -40 26 -84 19 -75 41 -115 55 -101 4 3 -1 25 -10 48 -16 40 -46 166 -46
194 0 7 16 36 35 64 38 54 44 74 20 65 -15 -6 -41 -48 -95 -152 -18 -34 -36
-65 -41 -68 -20 -12 -5 204 27 390 15 91 8 131 -16 87z"/>
<path d="M2291 2443 c-27 -67 -47 -266 -42 -415 2 -33 17 -18 46 42 33 69 65
103 92 98 15 -3 18 -13 18 -58 l0 -54 -60 -34 c-102 -57 -136 -102 -100 -132
40 -33 124 21 165 106 14 27 34 51 54 61 17 9 43 25 58 36 15 11 29 19 30 16
2 -2 8 -13 14 -23 6 -11 16 -22 23 -24 19 -6 71 56 130 157 30 50 58 91 62 91
4 0 6 -17 4 -37 -2 -21 -6 -79 -10 -130 l-7 -92 -69 -56 c-80 -65 -142 -139
-175 -210 -31 -65 -30 -100 1 -130 56 -57 140 -13 200 105 22 43 65 203 65
242 0 35 20 55 109 108 67 40 92 60 75 60 -4 0 -38 -18 -74 -39 -37 -22 -72
-41 -79 -43 -10 -2 -13 28 -14 131 -2 92 -6 136 -14 138 -6 2 -26 -22 -45 -54
-52 -93 -132 -203 -145 -203 -17 0 -16 5 3 69 22 74 4 90 -28 25 -23 -48 -74
-96 -115 -109 -21 -6 -23 -3 -23 32 0 44 -28 83 -60 83 -17 0 -47 -26 -85 -75
-15 -19 -16 -14 -11 65 4 47 10 110 15 140 5 30 12 74 16 98 9 48 -6 57 -24
15z m89 -441 c0 -4 -11 -23 -24 -43 -28 -41 -81 -68 -98 -51 -15 15 0 32 60
72 46 30 62 36 62 22z m356 -106 c-30 -113 -58 -174 -94 -209 -39 -37 -75 -44
-101 -18 -37 37 -22 91 50 186 47 62 161 163 167 147 2 -6 -8 -54 -22 -106z"/>
<path d="M1700 2385 c-11 -13 -11 -19 3 -33 20 -19 41 -5 35 24 -4 24 -22 28
-38 9z"/>
<path d="M3755 2379 c-5 -13 -2 -25 6 -30 19 -11 29 -2 29 27 0 30 -26 32 -35
3z"/>
<path d="M4167 2393 c-11 -10 -8 -41 4 -49 16 -9 41 20 33 39 -6 17 -25 22
-37 10z"/>
<path d="M4130 2224 c-13 -32 -13 -125 0 -158 5 -14 20 -32 34 -41 22 -15 27
-15 54 -1 30 15 132 122 132 138 0 17 -15 6 -75 -58 -67 -71 -89 -78 -113 -34
-9 18 -11 47 -7 103 4 53 3 77 -5 77 -6 0 -15 -12 -20 -26z"/>
<path d="M2300 1530 c0 -22 -4 -28 -15 -24 -8 4 -26 3 -40 0 -21 -5 -25 -12
-25 -46 0 -42 12 -50 68 -47 21 1 22 6 22 74 0 40 -2 73 -5 73 -3 0 -5 -13 -5
-30z m-4 -55 c7 -29 -10 -55 -37 -55 -21 0 -33 31 -24 60 10 30 53 27 61 -5z"/>
<path d="M2530 1545 c-7 -9 -8 -15 -2 -15 5 0 12 7 16 15 3 8 4 15 2 15 -2 0
-9 -7 -16 -15z"/>
<path d="M1942 1478 c0 -40 3 -59 5 -41 4 27 9 32 36 36 l32 4 -33 1 c-30 2
-33 5 -30 29 2 22 10 29 33 34 29 6 29 7 -7 8 l-38 1 2 -72z"/>
<path d="M3013 1521 c-8 -13 -9 -22 -3 -26 6 -3 10 -24 10 -46 0 -34 3 -39 23
-38 16 1 18 2 5 6 -13 3 -18 15 -18 43 0 28 5 40 18 43 15 4 15 5 0 6 -9 0
-18 8 -20 16 -2 13 -5 12 -15 -4z"/>
<path d="M2081 1496 c-16 -19 -10 -66 10 -79 23 -15 66 -1 72 24 10 37 -9 69
-42 69 -15 0 -34 -6 -40 -14z m64 -16 c9 -29 -3 -60 -24 -60 -27 0 -43 24 -35
54 8 32 49 37 59 6z"/>
<path d="M2381 1455 c1 -27 3 -39 6 -25 9 58 14 69 36 73 13 3 9 4 -10 4 -33
-1 -33 -1 -32 -52z"/>
<path d="M2490 1502 c0 -5 11 -7 25 -4 18 3 25 0 25 -12 0 -9 -8 -16 -19 -16
-24 0 -45 -25 -37 -45 3 -10 18 -14 43 -13 l39 1 -6 46 c-5 43 -7 46 -37 49
-18 2 -33 -1 -33 -6z m60 -46 c0 -18 -15 -36 -29 -36 -25 0 -33 11 -20 27 10
12 49 19 49 9z"/>
<path d="M2623 1494 c-7 -18 20 -44 45 -44 7 0 12 -6 9 -12 -2 -7 -16 -13 -30
-13 -15 1 -23 -3 -18 -8 16 -16 56 -3 59 19 2 16 -4 24 -27 32 -40 14 -39 30
2 35 l32 4 -33 1 c-22 1 -35 -3 -39 -14z"/>
<path d="M2768 1503 c27 -5 27 -8 4 -41 -36 -52 -36 -52 5 -51 30 2 32 3 11 6
-25 4 -41 23 -20 23 8 0 42 52 42 64 0 3 -15 5 -32 5 -24 -1 -27 -3 -10 -6z"/>
<path d="M2876 1502 c-3 -5 9 -6 26 -4 37 6 35 -19 -3 -28 -17 -4 -25 -14 -27
-33 -3 -26 -1 -27 35 -25 l38 3 -3 47 c-4 45 -6 48 -32 48 -16 0 -31 -4 -34
-8z m52 -59 c-4 -22 -48 -31 -48 -10 0 19 10 27 32 27 13 0 18 -6 16 -17z"/>
</g>
</svg>
